<?xml version="1.0" encoding="UTF-8"?>
<svg id="Layer_2" data-name="Layer 2" xmlns="http://www.w3.org/2000/svg" viewBox="0 0 849.08 670.42">
  <defs>
    <style>
      .cls-1 {
        fill: #f8a269;
      }

      .cls-2 {
        fill: #154283;
      }
    </style>
  </defs>
  <path class="cls-2" d="M702.35,563.26c-2.92.11-4.84,3.08-3.75,5.78,4.14,10.22,9.88,19.79,14.03,30.06,6.09,15.07,12.45,33.94,16.9,49.6,1.32,4.64,5.46,16.01,3.06,19.72-1.24,1.91-4.34,2.18-6.14.83-2.56-1.91-10.48-31.89-12.45-37.72-7.81-23.15-18.04-49.94-30.36-71.01-8.34-14.25-14.88-19.48-30.43-25.17-18.95-6.93-40.2-10.85-59.68-17.13-2.57-.83-5.23.95-5.47,3.64-.98,11.12-1.23,23.55-3,33.14-.85,4.6-5.79,5.39-9.78,3.79-16.73-6.69-35.02-20.11-51.85-26.67-3.64-1.42-5.1-1.75-8.99-.86-17.25,3.94-37.33,16.77-54.76,20.57-11.58,2.53-8.93-16.43-7.77-28.23.28-2.91-2.41-5.2-5.24-4.47-20.33,5.24-40.94,9.91-60.87,16.52-7.72,2.56-27.64,8.99-32.76,14.12-3.85,3.87-9.81,20.21-11.97,26.18-10.81,29.81-17.52,61.74-25.23,92.48-1.17,2.8-5.88,2.41-7.56.28-2.68-3.39,1.71-17.7,2.82-22.45,6.04-25.92,13.91-51.53,22.1-76.83.75-2.33-.63-4.8-3.01-5.39-14.53-3.58-21.92-5.47-28.11-22.1-8.93-24.03-12.09-65.29-13.38-91.26-6.83-138.04,6.9-320.77,169.25-359.51,22.01-5.25,36.2-5.86,57.46-5.14.44,0,.87-.04,1.29-.16,7.9-2.29,17.18-3.62,25.56-4.15,56.84-3.6,119.64,34.22,150.8,80.3,66.1,97.75,69.6,225.94,60.18,339.86-1.18,14.31-.84,36.55-5.74,49.84-2.44,6.61-6.65,6.56-12.77,7.95-10.51,2.39-21.53,3.21-32.38,3.61v-.02ZM657.19,208.03c4.85-3.4-5.75-25.38-8.6-29.91-16.04-25.49-50.34-48.8-79.06-57.21-59.14-17.32-159.74,3.25-190.76,62.21-1.56,2.96-5.82,10.28.51,8.14,17.35-5.83,39.73-23.44,57.52-31.88,31.26-14.82,63.17-20.49,97.81-18.83,45.47,2.18,77.35,26.85,108.53,57.18,2.26,2.2,9.97,13.14,14.05,10.29h0ZM666.05,329.83c0-2.22-1.71-4.06-3.93-4.22-34.02-2.55-54.7-21.58-68.27-52.45-10.72-24.39-15.09-88.06-55.39-74.27-1.67.57-4.8,1.91-7,3.17-1.43.81-3.18.72-4.53-.22-2.71-1.89-7.16-4.33-9.23-5.15-20.51-8.12-38.9,7.22-46.31,25.62-7.37,18.3-6.81,36.38-17.14,54.8-1.26,2.24-4.71,5.58-5.23,6.77-.86,1.96.8,1.42,1.58,1.65,4.49,1.34,13.63,1.95,14.27,6.85.37,2.84-2.43,5.19-5.19,4.44-2.18-.59-4.41-2.14-6.94-2.5-14.88-2.11-15.79,3.74-27.42,8.37-20.37,8.11-41.51,6.68-62.44,2.33-2.37-.49-4.68,1.12-5.02,3.52-9.35,66.19,33.1,118.61,94.93,138.31,43.4,13.83,122.15,9.64,161.98-13.64,37.37-21.85,51.21-61.86,51.27-103.38h.01ZM688.59,236.76c-1.73-1.68-4.08-2.16-4.78.64-.5,1.98.28,4.49.83,6.4.64,2.23,1.48,4.52,3.2,6.06.57.51,1.3.95,2.07.86,1.19-.13,1.88-1.42,2.12-2.59.5-2.47-.13-5.04-1.05-7.39-.51-1.3-1.11-2.58-2.04-3.62-.11-.13-.23-.25-.35-.37h0ZM673.11,238.65c-3.66.17-.78,11.85-.05,13.42.41.88.91,1.76,1.67,2.37s1.83.91,2.74.55c1.47-.6,1.81-2.51,1.74-4.1-.18-3.77-1.51-7.45-3.62-10.58-.46-.67-1.01-1.37-1.79-1.58-.25-.07-.47-.09-.68-.09h0ZM686.87,300.33c-10.34.89-11.68,22.56-12.66,31.02-1.39,12.02-4.88,34.4,14.77,22.4,14.28-8.72,17.45-32.18,9.66-46.04-1.94-3.45-7.74-7.72-11.77-7.37h0ZM543.29,462.67c-15.48,1.81-30.18,2.84-45.17,1.08-2.39-.28-4.53,1.48-4.7,3.88l-2.32,33.17c-.03.37-.09.75-.22,1.1-1.89,5.02-7,4.77-13.2,6.78-1.08.35-2.88.78-1.38,2.42.72.78,16.5,6.07,18.94,6.7,17.77,4.56,44.71,6.99,62.04.7,1.59-.58,12.31-5.77,12.78-6.31,1.54-1.78-.32-1.84-1.51-2.27-4.24-1.54-16.12-2.78-17.87-6.13-3.07-5.89-3.24-24.81-2.71-36.78.11-2.58-2.12-4.64-4.68-4.34h0Z"/>
  <path class="cls-2" d="M518.5,561.49c13.83-4.09,13.39,17.64,0,13.7-5.61-1.65-5.64-12.04,0-13.7Z"/>
  <path class="cls-2" d="M519.6,601.77c9.37-2.68,13.66,11.15,4.97,13.76-10.21,3.07-12.06-11.74-4.97-13.76Z"/>
  <path class="cls-2" d="M526.17,655.78c-9.14,8.59-17.76-14.27-3.64-12.78,6.64.7,7.66,8.99,3.64,12.78Z"/>
  <path class="cls-1" d="M657.16,207.98c-.26.17-.55.3-.89.37-1,.21-2.02-.19-2.92-.68-3.02-1.65-5.35-4.3-7.67-6.84-28.9-31.62-67.11-58.16-111.07-60.27-38.08-1.83-75.06,5.89-108.27,24.73-15.19,8.61-29.78,18.31-45.52,25.88-1.39.67-3.24,1.24-4.29.11-.96-1.04-.45-2.71.14-3.99,6.69-14.4,17.44-26.69,30-36.4,34.32-26.5,81.42-37.27,124.17-35.79,13.04.45,26.15,2.14,38.69,5.81,38.16,11.18,78.23,40.79,88.72,80.68.58,2.22.61,5.26-1.09,6.39h0Z"/>
  <path class="cls-1" d="M401.43,362.52c-.96-.95-3.14-4.59-3.42-5.86-4.39-19.73,35.57-17.06,39.41-5.6,5.64,16.82-25.9,21.45-35.99,11.46Z"/>
  <path class="cls-1" d="M606.85,345.72c8.17-1.3,22.92-.66,24.94,9.51,2.5,12.57-18.4,16.29-27.71,13.44-17.52-5.37-13.3-20.39,2.77-22.95Z"/>
  <path class="cls-2" d="M446.58,311.93c14.85-3.92,21.09,17.47,9.38,24.63-16.41,10.05-25.03-20.5-9.38-24.63Z"/>
  <path class="cls-2" d="M587.13,341.81c-9.89,9.76-25.61-5.52-16.47-19.19,10.38-15.51,28.48,7.33,16.47,19.19Z"/>
  <path class="cls-2" d="M535.25,354.74c1.06-.49,2.22-.6,3.29-.1,2.32,1.09,2.66,4.25,2.22,6.77-1.38,7.89-7.69,14.8-15.52,16.52-7.83,1.72-16.65-2.09-20.44-9.15-.85-1.57-1.46-3.35-1.22-5.12.37-2.63,2.32-3.82,4.78-3.54,3.11.35,5.28,5.22,7.77,6.9,4.01,2.72,10.14,1.53,12.84-2.48,1.43-2.12,1.92-4.75,3.22-6.96.7-1.19,1.81-2.27,3.05-2.83h0Z"/>
  <path class="cls-2" d="M578.59,289.03c4.29-.1,18.56.36,17.69,5.79-1,6.27-7.22,3.67-16.84,3.67-11,0-15.65,4.02-18.68.1-5.42-7.01,13.19-9.46,17.83-9.56h0Z"/>
  <path class="cls-2" d="M518.16,337.28c-.49.69-.12,1.66.7,1.83,15.49,3.17,8.27,16.4-5.42,7.9-12.27-7.61,3.31-27.12,8.16-20.15,2.88,4.13-1.77,8.07-3.44,10.42Z"/>
  <g>
    <path class="cls-2" d="M229.62,528.22l-130.98,11.03c-1.24-.72-2.13-1.43-2.63-2.85-1.71-4.8-2.64-18.91-3.38-24.96-2.63-21.59-3.84-43.36-4.89-65.08-.12-2.46,1.09-4.8,3.17-6.13h0l41.37-4.37c9.09,2,3.57,16.5,10.87,17.46,24.56-.22,51.21-6.27,75.43-6.51,3.31-.03,5.99,1.73,6.71,5.06s.93,9.97,1.32,13.94c1.61,16.8,3.91,36.78,4.42,53.36.07,2.29.21,7.47-1.4,9.05h0ZM221.16,520.85l-5.47-64.31-115.57,9.8,4.36,63.22,116.68-8.72h0Z"/>
    <path class="cls-2" d="M176.19,469.9c31.72-4.21,34.57,42.8,5.13,44.41-29.12,1.6-32.03-40.84-5.13-44.41ZM178.35,485.04c-8.34,1.49-6.81,15.67,2.95,14.01,7.82-1.34,6.69-15.72-2.95-14.01Z"/>
    <path class="cls-2" d="M121.77,469.77c.71.44,1.43,4.59,1.28,5.78-.63,5.06-20.25,9.05-18.62-2.09.71-4.83,15.46-4.87,17.34-3.69h0Z"/>
    <path class="cls-2" d="M131.43,467.66c12.02-3.57,9.47,15.14-.47,10.96-5.45-2.29-4.4-9.52.47-10.96Z"/>
    <path class="cls-1" d="M178.35,485.04c9.64-1.72,10.77,12.67,2.95,14.01-9.76,1.67-11.29-12.52-2.95-14.01Z"/>
  </g>
  <g>
    <path class="cls-2" d="M652.96,27.05v-6.41l24.4-15.81v8.42l-16.74,10.47v.25l16.74,10.47v8.42l-24.4-15.81Z"/>
    <path class="cls-2" d="M708.96,0h7.76l-20.79,54.89h-7.76L708.96,0Z"/>
    <path class="cls-2" d="M727.53,34.44l16.74-10.47v-.25l-16.74-10.47V4.83l24.4,15.81v6.41l-24.4,15.81v-8.42Z"/>
  </g>
  <g>
    <path class="cls-2" d="M0,618.95v-6.41l24.4-15.81v8.42l-16.74,10.47v.25l16.74,10.47v8.42l-24.4-15.81h0Z"/>
    <path class="cls-2" d="M35.1,592.5h9.29v10.78l-.54,6.03h.24c2.32-2.41,5.69-4.67,10.37-4.67,7.03,0,10.14,4.84,10.14,12.73v19.33h-9.29v-18.13c0-4.17-1.2-6.01-4.59-6.01-2.48,0-4.16,1.15-6.33,3.26v20.89h-9.29v-44.2h0Z"/>
    <path class="cls-2" d="M71.88,621.02c0-10.24,7.9-16.39,16.29-16.39,9.65,0,14.74,6.52,14.74,15.02,0,1.7-.26,3.38-.39,4.16h-23.75v-6.22h17.47l-1.46,1.77c0-5.03-2.18-7.67-6.3-7.67-4.59,0-7.6,3.11-7.6,9.33s3.54,9.35,9.62,9.35c2.84,0,5.29-.77,8.06-2.17l3.08,5.59c-3.58,2.29-8.21,3.66-12.41,3.66-9.76,0-17.35-6.02-17.35-16.42h0Z"/>
    <path class="cls-2" d="M119.23,624.45v-24.68h-9.85v-7.28h19.14v32.33c0,3.87,2.49,5.13,5.1,5.13,1.45,0,2.98-.31,4.88-1.02l2.05,6.83c-3.25,1.06-5.45,1.69-9.34,1.69-7.88,0-11.98-5.06-11.98-13Z"/>
    <path class="cls-2" d="M157.09,624.45v-24.68h-9.85v-7.28h19.14v32.33c0,3.87,2.49,5.13,5.1,5.13,1.45,0,2.98-.31,4.88-1.02l2.05,6.83c-3.25,1.06-5.45,1.69-9.34,1.69-7.88,0-11.98-5.06-11.98-13h0Z"/>
    <path class="cls-2" d="M184.94,621.06c0-10.42,7.7-16.43,15.96-16.43s15.96,6,15.96,16.43-7.7,16.39-15.96,16.39-15.96-6-15.96-16.39ZM207.36,621.06c0-5.43-2.18-8.93-6.46-8.93s-6.46,3.5-6.46,8.93,2.18,8.9,6.46,8.9,6.46-3.49,6.46-8.9Z"/>
    <path class="cls-2" d="M245.27,591.89h7.76l-20.79,54.89h-7.76l20.79-54.89Z"/>
    <path class="cls-2" d="M263.84,626.34l16.74-10.47v-.25l-16.74-10.47v-8.42l24.4,15.81v6.41l-24.4,15.81v-8.42h0Z"/>
  </g>
  <path class="cls-1" d="M222.35,341.35c-35.8,5.32-40.11,9.64-45.43,45.43-5.32-35.8-9.64-40.11-45.43-45.43,35.8-5.32,40.11-9.64,45.43-45.43,5.32,35.8,9.64,40.11,45.43,45.43Z"/>
  <path class="cls-1" d="M839.73,100.7c-35.8,5.32-40.11,9.64-45.43,45.43-5.32-35.8-9.64-40.11-45.43-45.43,35.8-5.32,40.11-9.64,45.43-45.43,5.32,35.8,9.64,40.11,45.43,45.43h0Z"/>
  <path class="cls-1" d="M849.08,588.51c-35.8,5.32-40.11,9.64-45.43,45.43-5.32-35.8-9.64-40.11-45.43-45.43,35.8-5.32,40.11-9.64,45.43-45.43,5.32,35.8,9.64,40.11,45.43,45.43Z"/>
</svg>