<?xml version="1.0" encoding="UTF-8"?>
<svg id="Layer_2" data-name="Layer 2" xmlns="http://www.w3.org/2000/svg" viewBox="0 0 508.85 532.3">
  <path fill = "rgb(7, 140, 207)" d="M474.2,23.7c16.39,1.86,30.48,12.9,33.74,29.44,1.2,149.56,1.2,299.54,0,449.11-3.71,17.61-18.21,28.87-35.97,29.97-146.97-.47-294.07.83-440.96-.65-15.04-2.87-27.13-14.18-30.13-29.32C-.37,352.82-.19,202.99.8,53.54c2.83-16.27,17.6-28.47,33.84-29.85h439.57ZM107.96,93.77c-32.24,3.28-49.02,41.42-31.07,68.24,17.72,26.48,57.61,25.43,74.04-1.8,19.12-31.7-6.5-70.15-42.97-66.44ZM433.74,456.77l.02-147.63c-1.79-32.87-7.51-69.92-37.83-88.54-20-12.28-52.11-15.13-74.59-9.84-20.07,4.72-39.78,17.92-49.41,36.41l-1.54.31v-32.72l-.75-.75h-70.93l-.75.75v242.01h75.43l-.02-126.65c1.26-26.37,7.62-51.49,37.74-55.17,33.49-4.09,45.2,16.52,46.72,46.68l-.02,135.14h75.93ZM151.02,456.77v-242.01l-.75-.75h-74.68v242.76h75.43Z"/>
</svg>